<?xml version="1.0" encoding="UTF-8" standalone="no"?><!DOCTYPE svg PUBLIC "-//W3C//DTD SVG 1.1//EN" "http://www.w3.org/Graphics/SVG/1.1/DTD/svg11.dtd"><svg width="100%" height="100%" viewBox="0 0 93 93" version="1.1" xmlns="http://www.w3.org/2000/svg" xmlns:xlink="http://www.w3.org/1999/xlink" xml:space="preserve" xmlns:serif="http://www.serif.com/" style="fill-rule:evenodd;clip-rule:evenodd;stroke-linejoin:round;stroke-miterlimit:2;"><g id="server"><path d="M88.901,10.635c0,-2.926 -2.376,-5.302 -5.302,-5.302l-74.382,0c-2.927,0 -5.302,2.376 -5.302,5.302l0,13.878c0,2.926 2.375,5.302 5.302,5.302l74.382,0c2.926,0 5.302,-2.376 5.302,-5.302l0,-13.878Z" style="fill:#fff;"/><clipPath id="_clip1"><path d="M88.901,10.635c0,-2.926 -2.376,-5.302 -5.302,-5.302l-74.382,0c-2.927,0 -5.302,2.376 -5.302,5.302l0,13.878c0,2.926 2.375,5.302 5.302,5.302l74.382,0c2.926,0 5.302,-2.376 5.302,-5.302l0,-13.878Z"/></clipPath><g clip-path="url(#_clip1)"><circle cx="65.556" cy="17.574" r="3.323" style="fill:#303030;"/><circle cx="76.048" cy="17.574" r="3.323" style="fill:#303030;"/></g><path d="M88.989,39.513c0,-2.926 -2.376,-5.302 -5.303,-5.302l-74.382,0c-2.926,0 -5.302,2.376 -5.302,5.302l0,13.877c0,2.927 2.376,5.302 5.302,5.302l74.382,0c2.927,0 5.303,-2.375 5.303,-5.302l0,-13.877Z" style="fill:#fff;"/><clipPath id="_clip2"><path d="M88.989,39.513c0,-2.926 -2.376,-5.302 -5.303,-5.302l-74.382,0c-2.926,0 -5.302,2.376 -5.302,5.302l0,13.877c0,2.927 2.376,5.302 5.302,5.302l74.382,0c2.927,0 5.303,-2.375 5.303,-5.302l0,-13.877Z"/></clipPath><g clip-path="url(#_clip2)"><circle cx="65.644" cy="46.452" r="3.323" style="fill:#303030;"/><circle cx="76.136" cy="46.452" r="3.323" style="fill:#303030;"/></g><path d="M88.989,68.39c0,-2.926 -2.376,-5.302 -5.303,-5.302l-74.382,0c-2.926,0 -5.302,2.376 -5.302,5.302l0,13.878c0,2.926 2.376,5.302 5.302,5.302l74.382,0c2.927,0 5.303,-2.376 5.303,-5.302l0,-13.878Z" style="fill:#fff;"/><clipPath id="_clip3"><path d="M88.989,68.39c0,-2.926 -2.376,-5.302 -5.303,-5.302l-74.382,0c-2.926,0 -5.302,2.376 -5.302,5.302l0,13.878c0,2.926 2.376,5.302 5.302,5.302l74.382,0c2.927,0 5.303,-2.376 5.303,-5.302l0,-13.878Z"/></clipPath><g clip-path="url(#_clip3)"><circle cx="65.644" cy="75.329" r="3.323" style="fill:#303030;"/><circle cx="76.136" cy="75.329" r="3.323" style="fill:#303030;"/></g></g></svg>